<?xml version="1.0" encoding="UTF-8" standalone="no"?>
<!-- Created with Inkscape (http://www.inkscape.org/) -->

<svg
   xmlns:dc="http://purl.org/dc/elements/1.1/"
   xmlns:cc="http://creativecommons.org/ns#"
   xmlns:rdf="http://www.w3.org/1999/02/22-rdf-syntax-ns#"
   xmlns:svg="http://www.w3.org/2000/svg"
   xmlns="http://www.w3.org/2000/svg"
   xmlns:sodipodi="http://sodipodi.sourceforge.net/DTD/sodipodi-0.dtd"
   xmlns:inkscape="http://www.inkscape.org/namespaces/inkscape"
   width="210mm"
   height="297mm"
   viewBox="0 0 210 297"
   version="1.1"
   id="svg8"
   inkscape:version="0.92.2 2405546, 2018-03-11"
   sodipodi:docname="logo-rupeerabbit.svg">
  <defs
     id="defs2" />
  <sodipodi:namedview
     id="base"
     pagecolor="#ffffff"
     bordercolor="#666666"
     borderopacity="1.0"
     inkscape:pageopacity="0.0"
     inkscape:pageshadow="2"
     inkscape:zoom="0.35"
     inkscape:cx="314.67867"
     inkscape:cy="520.34962"
     inkscape:document-units="mm"
     inkscape:current-layer="layer1"
     showgrid="false"
     inkscape:window-width="1366"
     inkscape:window-height="746"
     inkscape:window-x="0"
     inkscape:window-y="22"
     inkscape:window-maximized="1" />
  <metadata
     id="metadata5">
    <rdf:RDF>
      <cc:Work
         rdf:about="">
        <dc:format>image/svg+xml</dc:format>
        <dc:type
           rdf:resource="http://purl.org/dc/dcmitype/StillImage" />
        <dc:title></dc:title>
      </cc:Work>
    </rdf:RDF>
  </metadata>
  <g
     inkscape:label="Layer 1"
     inkscape:groupmode="layer"
     id="layer1">
    <path
       style="fill:#ffffff;stroke-width:1.23571551"
       d="M 87.17289,251.20148 C 72.878286,246.24485 67.697062,236.0919 73.424515,224.26057 c 4.307375,-8.89788 17.382414,-17.1423 42.521225,-26.81171 4.75755,-1.8299 11.6482,-5.11729 15.31259,-7.30525 20.16507,-12.04036 6.41924,-34.48133 -26.72214,-43.62583 -7.791012,-2.14975 -9.842186,-4.22485 -8.257719,-8.35407 1.083593,-2.82371 5.351979,-2.53863 16.121819,1.07663 29.26748,9.8248 43.21007,27.85769 35.60851,46.05518 -3.96483,9.49158 -8.00082,12.22282 -35.15231,23.78865 -33.75937,14.38051 -40.967401,24.79401 -22.815566,32.9615 4.262129,1.91781 7.383772,2.11666 41.792586,2.8275 l 37.57303,0.77625 c 0,0 4.60433,0.72275 4.61368,3.95009 0.008,2.51114 -2.64932,3.55028 -3.88502,3.55994 -7.12616,0.0558 -36.27157,0.0281 -36.27157,0.0281 -36.182991,0.24978 -40.807543,0.053 -46.69074,-1.9872 z M 56.837348,174.85521 C 54.56814,172.586 56.409246,168.20477 61.574946,163.58144 83.349784,144.09249 90.897481,120.95881 84.959709,91.907166 78.816333,61.849603 62.549392,49.675356 51.07067,66.544461 c -2.676,3.932649 -3.087086,5.887364 -3.072821,14.611408 0.02662,16.34316 9.632545,32.675911 24.897603,42.333331 6.063755,3.83625 7.126097,5.6416 5.313068,9.02923 -2.53968,4.7455 -9.772328,1.42794 -21.32849,-9.78306 -27.010681,-26.204026 -23.367151,-73.07213 5.682396,-73.094759 19.13262,-0.01402 32.862257,24.114715 33.395313,58.691909 0.244504,15.85433 -1.378699,23.68514 -7.427919,35.83573 -8.984722,18.04688 -26.943529,35.43593 -31.692472,30.68696 z M 97.49195,169.0768 c -3.821653,-3.82163 -4.056902,-8.04542 -0.651628,-11.70053 5.124378,-5.50042 14.780438,-2.12832 14.780438,5.16159 0,8.43247 -8.36425,12.30355 -14.12881,6.53894 z"
       id="path4604"
       inkscape:connector-curvature="0"
       sodipodi:nodetypes="csccccccccscsscccsssccccccccsssss" />
  </g>
</svg>
