<?xml version="1.0" encoding="UTF-8" standalone="no"?>
<!-- Created with Inkscape (http://www.inkscape.org/) -->

<svg
   xmlns:dc="http://purl.org/dc/elements/1.1/"
   xmlns:cc="http://creativecommons.org/ns#"
   xmlns:rdf="http://www.w3.org/1999/02/22-rdf-syntax-ns#"
   xmlns:svg="http://www.w3.org/2000/svg"
   xmlns="http://www.w3.org/2000/svg"
   xmlns:xlink="http://www.w3.org/1999/xlink"
   xmlns:sodipodi="http://sodipodi.sourceforge.net/DTD/sodipodi-0.dtd"
   xmlns:inkscape="http://www.inkscape.org/namespaces/inkscape"
   width="210mm"
   height="297mm"
   viewBox="0 0 210 297"
   version="1.1"
   id="svg8"
   inkscape:version="0.92.2 2405546, 2018-03-11"
   sodipodi:docname="logo-rupeerabbit-white.svg"
   inkscape:export-filename="/home/krushn/Studio/Graphics/Logo/logo-rupeerabbit/logo-rupeerabbit.png"
   inkscape:export-xdpi="300"
   inkscape:export-ydpi="300">
  <defs
     id="defs2">
    <clipPath
       clipPathUnits="userSpaceOnUse"
       id="clipPath4530">
      <use
         x="0"
         y="0"
         xlink:href="#g4526"
         id="use4532"
         width="100%"
         height="100%" />
    </clipPath>
  </defs>
  <sodipodi:namedview
     id="base"
     pagecolor="#ffffff"
     bordercolor="#666666"
     borderopacity="1.0"
     inkscape:pageopacity="0.0"
     inkscape:pageshadow="2"
     inkscape:zoom="0.5"
     inkscape:cx="-198.72204"
     inkscape:cy="502.98033"
     inkscape:document-units="mm"
     inkscape:current-layer="g4528"
     showgrid="false"
     inkscape:window-width="1366"
     inkscape:window-height="736"
     inkscape:window-x="0"
     inkscape:window-y="0"
     inkscape:window-maximized="1" />
  <metadata
     id="metadata5">
    <rdf:RDF>
      <cc:Work
         rdf:about="">
        <dc:format>image/svg+xml</dc:format>
        <dc:type
           rdf:resource="http://purl.org/dc/dcmitype/StillImage" />
        <dc:title></dc:title>
      </cc:Work>
    </rdf:RDF>
  </metadata>
  <g
     inkscape:label="Layer 1"
     inkscape:groupmode="layer"
     id="layer1">
    <g
       id="g4528"
       clip-path="url(#clipPath4530)">
      <g
         inkscape:label="Clip"
         id="g4526"
         style="fill:#ffffff"
         inkscape:export-xdpi="300"
         inkscape:export-ydpi="300">
        <path
           sodipodi:nodetypes="csccccccccscsscccsssccccccccsssss"
           inkscape:connector-curvature="0"
           id="path4604"
           d="M 87.17289,251.20148 C 72.878286,246.24485 67.697062,236.0919 73.424515,224.26057 c 4.307375,-8.89788 17.382414,-17.1423 42.521225,-26.81171 4.75755,-1.8299 11.6482,-5.11729 15.31259,-7.30525 20.16507,-12.04036 6.41924,-34.48133 -26.72214,-43.62583 -7.791012,-2.14975 -9.842186,-4.22485 -8.257719,-8.35407 1.083593,-2.82371 5.351979,-2.53863 16.121819,1.07663 28.60602,10.08938 43.07778,28.51915 35.60851,46.5182 -4.62629,8.30095 -8.00082,11.7598 -35.15231,23.32563 -33.75937,14.38051 -40.967401,24.79401 -22.815566,32.9615 7.172546,3.37302 19.294216,1.98991 42.850916,2.16604 l 33.04678,0.24708 c 6.17393,0.18709 8.07225,1.91338 8.0816,5.14072 0.008,2.51114 -3.89211,3.55757 -5.40511,3.53656 -6.41543,-0.0891 -34.75148,0.0515 -34.75148,0.0515 -36.182991,0.24978 -40.807543,0.053 -46.69074,-1.9872 z M 56.837348,174.85521 C 54.56814,172.586 56.409246,168.20477 61.574946,163.58144 83.349784,144.09249 90.897481,120.95881 84.959709,91.907166 78.816333,61.849603 62.549392,49.675356 51.07067,66.544461 c -2.080687,3.60192 -3.087086,5.887364 -3.072821,14.611408 0.02662,16.34316 9.632545,32.675911 24.897603,42.333331 6.063755,3.83625 7.126097,5.6416 5.313068,9.02923 -2.53968,4.7455 -9.772328,1.42794 -21.32849,-9.78306 -27.010681,-26.204026 -23.367151,-73.07213 5.682396,-73.094759 19.13262,-0.01402 32.862257,24.114715 33.395313,58.691909 0.244504,15.85433 -1.378699,23.68514 -7.427919,35.83573 -8.984722,18.04688 -26.943529,35.43593 -31.692472,30.68696 z m 40.390019,-5.44768 c -3.877281,-3.76518 -3.235493,-8.61083 -0.387045,-12.03126 4.449908,-5.34348 14.330418,-1.60612 14.581998,5.16159 0.29572,7.95496 -9.62102,11.31136 -14.194953,6.86967 z"
           style="fill:#ffffff;stroke-width:1.23571551" />
      </g>
    </g>
  </g>
  <g
     inkscape:groupmode="layer"
     id="layer2"
     inkscape:label="Layer 2" />
</svg>
